<svg xmlns="http://www.w3.org/2000/svg"><style>:root svg:not(:target){display:none}</style><svg viewBox="0 0 28 22" id="icon-vkontakte"><path id="Vector" d="M1 5.339c0-.855.515-1.316 1.545-1.383l3.97.025a.52.52 0 0 1 .533.377c.409 1.257.866 2.343 1.372 3.257.506.913 1.168 1.965 1.985 3.156.071.15.187.226.346.226.125 0 .223-.059.293-.176l.08-.277.027-4.35c0-.302-.075-.503-.226-.604-.151-.1-.431-.176-.84-.226-.32-.05-.48-.235-.48-.553 0-.067.01-.118.027-.151.373-1.09 1.44-1.635 3.198-1.635L14.322 3c.675 0 1.234.16 1.678.478.444.318.666.821.666 1.509v5.708c.125.084.24.126.347.126.266 0 .497-.15.692-.453 1.954-2.582 3.011-4.308 3.17-5.18 0-.017.019-.059.054-.126.125-.251.329-.47.613-.654.284-.184.533-.31.746-.377a.554.554 0 0 1 .24-.05h4.13l.266.025c.355 0 .63.16.826.478.07.1.12.21.146.327.027.117.045.234.054.352.009.117.013.184.013.2v.177c-.124.687-.44 1.42-.946 2.2-.506.78-1.15 1.622-1.931 2.528-.782.905-1.27 1.5-1.466 1.785-.16.201-.24.386-.24.553 0 .135.071.286.213.453l3.89 4.627c.213.269.32.562.32.88 0 .386-.16.705-.48.956-.32.252-.701.394-1.145.428l-.453.025h-4.05a.855.855 0 0 0-.106.012.862.862 0 0 1-.107.013c-.39 0-.755-.16-1.092-.478-.125-.134-.96-1.123-2.505-2.967a1.387 1.387 0 0 0-.373-.327c-.07.268-.164.654-.28 1.157-.115.503-.2.863-.253 1.081l-.08.427c-.177.587-.55.94-1.119 1.057l-.373.025h-2.61c-1.475 0-2.945-.637-4.41-1.911-1.466-1.275-2.784-2.922-3.957-4.942-1.172-2.02-2.264-4.372-3.277-7.054A1.916 1.916 0 0 1 1 5.338Zm16.013 6.513c-.373 0-.71-.096-1.013-.29-.302-.192-.453-.456-.453-.791V4.987c0-.336-.089-.575-.266-.717-.178-.143-.489-.214-.933-.214l-1.518.05c-.764 0-1.341.126-1.732.378.781.352 1.172.922 1.172 1.71v4.426a1.5 1.5 0 0 1-.533 1.044 1.59 1.59 0 0 1-1.066.414c-.532 0-.94-.243-1.225-.729C8.06 9.371 7.03 7.493 6.356 5.716l-.24-.654-3.544-.025c-.231 0-.36.013-.386.038-.027.025-.04.096-.04.213 0 .151.017.31.053.478l.56 1.409c1.491 3.638 3.112 6.505 4.862 8.6 1.75 2.096 3.468 3.144 5.155 3.144h2.665c.106 0 .186-.03.24-.088.053-.06.097-.172.133-.34l.053-.251.506-2.213c.142-.302.267-.503.373-.604a.975.975 0 0 1 .693-.277c.426 0 .861.243 1.305.73l2.265 2.716c.142.218.293.327.453.327h4.396c.533 0 .8-.126.8-.378a.466.466 0 0 0-.08-.251l-3.864-4.552c-.302-.352-.453-.73-.453-1.131 0-.403.142-.788.427-1.157.23-.336.679-.893 1.345-1.673a37.63 37.63 0 0 0 1.745-2.187c.498-.68.826-1.296.986-1.849l.08-.327a.371.371 0 0 1-.027-.163.574.574 0 0 0-.026-.189h-4.183c-.267.1-.48.252-.64.453l-.16.478c-.444 1.156-1.607 2.942-3.49 5.356a1.892 1.892 0 0 1-1.305.503Z"/></svg><svg viewBox="0 0 28 22" id="icon-youtube"><path d="m17.85 10.793-5.236-3.491a.655.655 0 0 0-1.014.545v6.982a.654.654 0 0 0 1.014.546l5.237-3.491a.655.655 0 0 0 0-1.091Zm-4.94 2.814V9.07l3.403 2.27-3.404 2.268Zm12.48-8.563a2.4 2.4 0 0 0-1.452-1.637C20.218 1.978 14.251 2 14 2c-.25 0-6.218-.022-9.938 1.407A2.4 2.4 0 0 0 2.61 5.044C2.327 6.113 2 8.076 2 11.338c0 3.262.327 5.226.61 6.295a2.4 2.4 0 0 0 1.452 1.636c3.72 1.43 9.687 1.407 9.938 1.407h.076c.753 0 6.317-.043 9.862-1.407a2.4 2.4 0 0 0 1.451-1.636c.284-1.07.611-3.033.611-6.295s-.327-5.225-.61-6.294Zm-1.266 12.261a1.09 1.09 0 0 1-.655.742c-3.49 1.342-9.404 1.32-9.469 1.32-.066 0-5.978.022-9.47-1.32a1.09 1.09 0 0 1-.654-.742c-.261-1.003-.567-2.847-.567-5.967 0-3.12.306-4.963.567-5.967a1.09 1.09 0 0 1 .655-.742C8.02 3.287 13.935 3.31 14 3.31c.066 0 5.978-.022 9.47 1.32a1.092 1.092 0 0 1 .654.742c.262 1.004.567 2.847.567 5.967 0 3.12-.305 4.964-.567 5.967Z"/></svg><svg viewBox="0 0 28 22" id="icon-telegram"><path id="Vector (Stroke)" fill-rule="evenodd" clip-rule="evenodd" d="M23.46 3.153c.18.15.265.382.227.611l-2.626 15.757a.657.657 0 0 1-1.012.439l-7.878-5.253a.657.657 0 0 1-.149-.956l2.611-3.263-4.36 2.906a.657.657 0 0 1-.658.041L4.363 10.81a.657.657 0 0 1 .073-1.205l18.383-6.566a.657.657 0 0 1 .642.115Zm-17.134 7.17 3.536 1.768 7.561-5.041a.656.656 0 0 1 .877.956l-4.805 6.006 6.438 4.292L22.208 4.65 6.326 10.323Z"/></svg><svg viewBox="0 0 101 18" id="logo-text"><path d="M1.264 16.538A6.865 6.865 0 0 1 0 12.231V5.846a6.95 6.95 0 0 1 1.185-4.384C2.055.462 3.398 0 5.374 0s3.24.462 4.03 1.308a5.422 5.422 0 0 1 1.186 3.769v1.538H6.718V4.846a3.693 3.693 0 0 0-.238-1.538 1.12 1.12 0 0 0-.456-.473 1.163 1.163 0 0 0-.65-.143c-.553 0-.948.154-1.106.539a4.846 4.846 0 0 0-.237 1.692v8.23a3.111 3.111 0 0 0 .316 1.616c.158.385.553.539 1.106.539s.87-.154 1.027-.539c.18-.52.26-1.067.238-1.615v-1.846h3.872v1.538a5.775 5.775 0 0 1-1.185 3.846c-.79.923-2.134 1.385-4.031 1.385-1.897-.077-3.32-.539-4.11-1.539ZM15.253.23h4.504l3.32 17.54H19.44l-.632-3.693h-2.608l-.632 3.692h-3.715L15.253.231Zm3.24 11.54-.948-6.847-.949 6.846h1.897ZM25.843 3.154h-2.687V.23h9.404v2.846h-2.687v14.692h-4.03V3.154ZM39.752.23h6.955v1.847h-4.505v5.77h3.635v1.768h-3.635v6.462h4.505v1.77h-7.034V.23h.079ZM48.761.23H50.5l5.137 11.616V.231h2.055v17.538h-1.58l-5.217-12v12h-2.134V.231ZM60.063.23h6.954v1.847h-4.504v5.77h3.635v1.768h-3.635v6.462h4.504v1.77h-6.954V.23ZM69.072.23h3.635a6.451 6.451 0 0 1 4.03 1.078c.87.692 1.265 1.923 1.265 3.538 0 2.23-.71 3.616-2.212 4.077l2.528 8.77h-2.45l-2.37-8.231h-1.976v8.23h-2.529V.231h.079Zm3.477 7.54a3.524 3.524 0 0 0 2.292-.616c.474-.385.711-1.154.711-2.308a4.848 4.848 0 0 0-.237-1.692 1.975 1.975 0 0 0-.869-.923 3.69 3.69 0 0 0-1.739-.308h-1.106v5.77h.948v.076ZM81.163 16.462A7.613 7.613 0 0 1 80.058 12V6.154c-.02-1.115.114-2.227.395-3.308a3.916 3.916 0 0 1 1.502-2c.882-.508 1.9-.75 2.924-.692 1.66 0 2.845.384 3.556 1.23a5.77 5.77 0 0 1 1.107 3.847v.615H87.17v-.538a11.03 11.03 0 0 0-.158-1.923 1.533 1.533 0 0 0-.633-1A2.493 2.493 0 0 0 84.878 2a2.417 2.417 0 0 0-1.58.462 1.703 1.703 0 0 0-.632 1.23 14.01 14.01 0 0 0-.159 2.077v6.539a6.818 6.818 0 0 0 .474 2.923c.316.615.949.846 1.897.846a1.96 1.96 0 0 0 1.092-.182c.337-.165.617-.422.805-.741a6.908 6.908 0 0 0 .553-3.077v-1.23h-2.292v-1.77h4.584v8.692h-1.58l-.238-2a3.143 3.143 0 0 1-1.226 1.658 3.288 3.288 0 0 1-2.014.573 4.045 4.045 0 0 1-1.899-.352 3.932 3.932 0 0 1-1.5-1.186ZM94.678 11.615 90.805.308h2.371l2.766 8.461L98.63.308H101l-3.873 11.307v6.154h-2.37v-6.154h-.08Z"/></svg><svg viewBox="0 0 27 34" id="logo-htmlacademy"><path d="M13.643.016 13.5 0 0 1.407v24.606L13.5 34 27 26.013V1.407L13.643.016Zm11.591 25L13.5 31.956 1.766 25.015V14.93l11.685 6.916.02 1.253-8.017-4.743-.011 1.225 8.046 4.809.02 1.286-8.045-4.758-.01 1.226L13.5 26.95l8.124-4.833V16.91l3.62-2.15-.01 10.256Zm0-11.564-3.22 1.88-1.482.875-7.065-4.187-.011 1.225 6.04 3.573-.053.031-.13.076-.86.492-4.986-2.948-.011 1.225 3.936 2.328-.933.61-.021.012-2.971-1.742-.011 1.225 1.947 1.135-1.988 1.186-11.618-6.872 11.638-6.958 11.8 6.834Zm0-1.225L13.44 5.31 1.766 12.22V2.99L13.5 1.764 25.234 2.99v9.237Z"/></svg><svg viewBox="0 0 21 20" id="icon-email"><path d="M1.5 8.5v8h17.004v-8M1.5 3.5h17.004v2l-8.502 6-8.502-6v-2Z" stroke-linecap="round" stroke-linejoin="round"/></svg><svg viewBox="0 0 21 20" id="icon-phone"><path d="M10.002 10h8.502m0 0-2.5-2.5m2.5 2.5-2.5 2.5m-7.502-10v5h-3v5h3v5h-2.5C4.5 17.5 3.5 16.5 3.5 15V5c0-1.5 1-2.5 2.5-2.5h2.5Z" stroke-linecap="round" stroke-linejoin="round"/></svg><svg viewBox="0 0 32 12" id="icon-arrow"><path id="Line 1" stroke="#000" stroke-width="2" d="M0 6h18"/><path id="Polygon 1" d="m24 6-6.75 5.196V.804L24 6Z" fill="#000"/></svg><svg viewBox="0 0 32 12" id="icon-arrow-hover"><path stroke="#000" stroke-width="2" d="M0 6h26"/><path d="m32 6-6.75 5.196V.804L32 6Z"/></svg><svg viewBox="0 0 24 24" id="logo-mobile-button"><path id="Line 15" stroke="#000" stroke-width="2" d="M0 3h24"/><path id="Line 16" stroke="#000" stroke-width="2" d="M0 11h24"/><path id="Line 17" stroke="#000" stroke-width="2" d="M0 19h24"/></svg><svg viewBox="0 0 20 20" id="toggle-open"><path transform="scale(.97098 1.0282) rotate(-45 24.51 7.237)" stroke="#000" stroke-width="1.5" d="M0-.75h24.758"/><path transform="matrix(.68659 .72705 -.68659 .72705 1 2)" stroke="#000" stroke-width="1.5" d="M0-.75h24.758"/></svg><svg viewBox="0 0 30 30" id="icon-plus"><path id="Line 4" stroke="#D3D3D3" stroke-width="2" d="M15 0v30"/><path id="Line 5" stroke="#D3D3D3" stroke-width="2" d="M30 15H0"/></svg><svg viewBox="0 0 78 81" id="icon-gift"><path d="M64.016 35.633H14.03c-1.754 0-3.182-1.419-3.182-3.162v-9.472c0-1.744 1.428-3.162 3.182-3.162h49.984c1.754 0 3.18 1.418 3.18 3.162v9.473c0 1.742-1.426 3.16-3.18 3.16ZM14.03 22.26a.752.752 0 0 0-.744.739v9.473c0 .407.334.738.744.738h49.984c.41 0 .743-.331.743-.739V23c0-.401-.34-.74-.743-.74H14.03Z" fill="#fff"/><path id="Vector_2" d="M57.045 68.082H20.999c-3.377 0-6.125-2.73-6.125-6.089V34.421c0-.669.546-1.212 1.219-1.212s1.219.543 1.219 1.212v27.572c0 2.022 1.654 3.666 3.687 3.666h36.046c2.032 0 3.686-1.644 3.686-3.666V34.421c0-.669.546-1.212 1.219-1.212.672 0 1.218.543 1.218 1.212v27.572c0 3.358-2.747 6.09-6.123 6.09Z" fill="#fff"/><path id="Vector_3" d="M39.023 68.082a1.215 1.215 0 0 1-1.22-1.211V34.42c0-.669.547-1.212 1.22-1.212.672 0 1.218.543 1.218 1.212V66.87c0 .67-.545 1.212-1.218 1.212Z" fill="#fff"/><path id="Vector_4" d="M23.811 22.256c-3.814-2.055-5.238-6.812-3.173-10.605 2.064-3.79 6.848-5.206 10.665-3.155 5.814 3.13 8.954 11.865 9.084 12.235l-2.3.804c-.029-.083-2.961-8.225-7.944-10.908-2.635-1.416-5.937-.439-7.36 2.178-1.426 2.619-.444 5.902 2.19 7.32l-1.162 2.13Z" fill="#fff"/><path id="Vector_5" d="m54.231 22.256-1.16-2.132a5.377 5.377 0 0 0 2.622-3.208 5.332 5.332 0 0 0-.431-4.11 5.382 5.382 0 0 0-3.226-2.605 5.423 5.423 0 0 0-4.134.426c-4.982 2.682-7.915 10.825-7.944 10.907l-2.3-.804c.131-.37 3.27-9.104 9.084-12.234a7.856 7.856 0 0 1 5.99-.618 7.8 7.8 0 0 1 4.674 3.773 7.726 7.726 0 0 1 .623 5.955 7.79 7.79 0 0 1-3.798 4.65Z" fill="#fff"/><path id="Vector_6" d="M61.95 51.857H16.093a1.215 1.215 0 0 1-1.219-1.211c0-.669.546-1.211 1.219-1.211H61.95c.672 0 1.218.542 1.218 1.21 0 .67-.545 1.212-1.218 1.212Z" fill="#fff"/></svg></svg>